<?xml version="1.0" encoding="UTF-8" standalone="no"?>
<!DOCTYPE svg PUBLIC "-//W3C//DTD SVG 1.1//EN" "http://www.w3.org/Graphics/SVG/1.1/DTD/svg11.dtd">
<svg width="100%" height="100%" viewBox="0 0 830 827" version="1.1" xmlns="http://www.w3.org/2000/svg" xmlns:xlink="http://www.w3.org/1999/xlink" xml:space="preserve" xmlns:serif="http://www.serif.com/" style="fill-rule:evenodd;clip-rule:evenodd;stroke-linejoin:round;stroke-miterlimit:2;">
    <g transform="matrix(1,0,0,1,-1225,-5246)">
        <g transform="matrix(1.24684,0,0,1.24684,-2089.13,4518.56)">
            <g transform="matrix(0.449149,0,0,0.449149,1843.84,537.395)">
                <path d="M2733.25,1458.88C2740.54,1456.78 2748.17,1460.99 2750.27,1468.27C2752.38,1475.56 2748.17,1483.19 2740.88,1485.29C2681.51,1502.43 2618.79,1511.61 2553.94,1511.61C2491.24,1511.61 2430.53,1503.03 2372.92,1486.97C2365.61,1484.93 2361.33,1477.35 2363.37,1470.04C2365.4,1462.73 2372.99,1458.45 2380.3,1460.49C2435.56,1475.89 2493.79,1484.12 2553.94,1484.12C2616.14,1484.12 2676.31,1475.32 2733.25,1458.88ZM2051.45,431.595C2046.67,437.49 2038.01,438.401 2032.12,433.627C2026.22,428.853 2025.31,420.19 2030.08,414.295C2137.24,281.96 2293.49,190.98 2471.01,169.147C2475,168.656 2478.67,165.483 2482.7,161.823C2492.06,153.317 2501.44,141.052 2510.91,130.545C2518.42,122.226 2526.06,114.933 2533.62,110.332C2540.35,106.236 2547.18,104.082 2553.94,104.082C2568.43,104.082 2583.78,115.107 2598.09,130.434C2607.95,140.994 2617.71,153.33 2627.45,161.919C2631.78,165.743 2635.79,169.002 2640.09,169.551C2816.4,192.1 2971.51,282.892 3078.02,414.577C3082.79,420.475 3081.88,429.137 3075.98,433.908C3070.08,438.679 3061.42,437.764 3056.65,431.866C2954.48,305.555 2805.72,218.448 2636.61,196.82C2628.88,195.832 2620.95,191.967 2613.17,185.808C2604.25,178.751 2595.22,168.471 2586.21,158.292C2579.67,150.907 2573.15,143.583 2566.56,138.147C2562.26,134.6 2558.27,131.573 2553.94,131.573C2549.92,131.573 2546.3,134.561 2542.31,137.967C2535.98,143.381 2529.71,150.672 2523.42,158.017C2514.73,168.178 2506,178.428 2497.4,185.435C2489.76,191.654 2481.94,195.499 2474.36,196.432C2304.09,217.374 2154.23,304.662 2051.45,431.595Z"/>
            </g>
            <g transform="matrix(0.493899,0,0,0.493899,1729.55,501.244)">
                <path d="M2389.52,989.758C2396.42,989.757 2402.03,995.358 2402.03,1002.26C2402.03,1009.16 2396.43,1014.76 2389.53,1014.76C2389.53,1014.76 1969.61,1014.81 1969.61,1014.81C1905.33,1014.93 1890.85,955.049 1886.83,923.495C1883.26,895.446 1881.42,866.86 1881.42,837.847C1881.42,750.966 1897.93,667.911 1927.98,591.65C1940.47,559.958 1974.46,500.291 2046.28,500.733L2223.93,500.733C2225.84,500.733 2227.72,501.17 2229.43,502.01L2396.05,583.733L2715.45,583.733L2882.05,502.011C2883.76,501.17 2885.64,500.733 2887.55,500.733C2887.55,500.733 3062.64,500.733 3065.59,500.733C3132.03,500.295 3167.38,559.892 3179.89,591.652C3209.94,667.912 3226.46,750.966 3226.46,837.847C3226.46,866.83 3224.62,895.387 3221.05,923.408C3217.03,955.059 3202.26,1014.56 3141.32,1014.83C3141.3,1014.83 3141.28,1014.84 3141.26,1014.84L2718.35,1014.76C2711.45,1014.76 2705.85,1009.15 2705.85,1002.26C2705.85,995.357 2711.45,989.757 2718.35,989.758C2718.35,989.758 3141.23,989.835 3141.23,989.835C3166.66,989.708 3179.85,974.046 3187.12,957.026C3192.64,944.092 3194.97,930.296 3196.25,920.253C3199.69,893.265 3201.46,865.761 3201.46,837.847C3201.46,754.201 3185.56,674.238 3156.63,600.817C3146.53,575.177 3119.37,525.355 3065.72,525.733C3065.69,525.733 3065.66,525.733 3065.63,525.733L2890.45,525.733L2723.85,607.456C2722.14,608.296 2720.26,608.733 2718.35,608.733L2393.15,608.733C2391.24,608.733 2389.36,608.296 2387.65,607.456L2221.03,525.733L2046.24,525.733C2046.22,525.733 2046.19,525.733 2046.16,525.733C1987.89,525.353 1961.37,575.109 1951.24,600.816C1922.31,674.237 1906.42,754.201 1906.42,837.847C1906.42,865.79 1908.19,893.322 1911.63,920.336C1914.58,943.498 1922.39,989.906 1969.58,989.811L1969.61,989.811L2389.52,989.758Z"/>
            </g>
            <g transform="matrix(0.493899,0,0,0.493899,1729.55,501.244)">
                <path d="M2685.08,1078.93C2688.57,1072.98 2696.23,1070.99 2702.18,1074.48C2708.14,1077.97 2710.13,1085.63 2706.64,1091.58C2675.92,1143.97 2619.01,1179.17 2553.94,1179.17C2488.87,1179.17 2431.95,1143.97 2401.23,1091.58C2397.74,1085.63 2399.74,1077.97 2405.69,1074.48C2411.64,1070.99 2419.3,1072.98 2422.8,1078.93C2449.18,1123.93 2498.05,1154.17 2553.94,1154.17C2609.82,1154.17 2658.69,1123.93 2685.08,1078.93ZM2402.03,1002.26C2402.03,1009.16 2396.42,1014.76 2389.53,1014.76C2382.63,1014.76 2377.03,1009.16 2377.03,1002.26C2377.03,904.618 2456.3,825.347 2553.94,825.347C2651.58,825.347 2730.85,904.618 2730.85,1002.26C2730.85,1009.16 2725.25,1014.76 2718.35,1014.76C2711.45,1014.76 2705.85,1009.16 2705.85,1002.26C2705.85,918.416 2637.78,850.347 2553.94,850.347C2470.1,850.347 2402.03,918.416 2402.03,1002.26Z"/>
            </g>
            <g transform="matrix(0.422492,0,0,0.422492,1911.92,572.812)">
                <circle cx="2553.94" cy="1002.26" r="83"/>
            </g>
            <g transform="matrix(0.175542,0,0,0.175542,2795.2,639.306)">
                <circle cx="2553.94" cy="1002.26" r="83"/>
            </g>
            <g transform="matrix(0.175542,0,0,0.175542,2292.5,639.306)">
                <circle cx="2553.94" cy="1002.26" r="83"/>
            </g>
            <g transform="matrix(0.175542,0,0,0.175542,2814.21,739.764)">
                <circle cx="2553.94" cy="1002.26" r="83"/>
            </g>
            <g transform="matrix(0.175542,0,0,0.175542,2271.01,739.764)">
                <circle cx="2553.94" cy="1002.26" r="83"/>
            </g>
            <g transform="matrix(0.493899,0,0,0.493899,1729.55,501.244)">
                <path d="M2271.7,541.403C2266.7,546.15 2258.78,545.94 2254.03,540.934C2249.28,535.928 2249.49,528.009 2254.5,523.262C2332.56,449.245 2437.98,403.815 2553.94,403.815C2670.47,403.815 2776.37,449.699 2854.54,524.373C2859.53,529.139 2859.71,537.058 2854.95,542.046C2850.18,547.035 2842.26,547.216 2837.27,542.45C2763.59,472.066 2663.78,428.815 2553.94,428.815C2444.64,428.815 2345.27,471.637 2271.7,541.403Z"/>
            </g>
            <g transform="matrix(0.66349,0,0,0.493899,1296.16,501.244)">
                <path d="M2308.68,771.5C2303.55,771.5 2299.38,765.899 2299.38,759C2299.38,752.101 2303.55,746.5 2308.68,746.5L2802.35,746.5C2807.48,746.5 2811.65,752.101 2811.65,759C2811.65,765.899 2807.48,771.5 2802.35,771.5L2308.68,771.5Z"/>
            </g>
            <g transform="matrix(0.493899,0,0,0.493899,1729.55,501.244)">
                <path d="M2384.39,749.941C2389.39,745.187 2397.31,745.387 2402.06,750.387C2406.81,755.388 2406.61,763.306 2401.61,768.059L2317.3,848.217C2314.97,850.426 2311.89,851.657 2308.68,851.657L2132.68,851.657C2125.78,851.657 2120.18,846.056 2120.18,839.157C2120.18,832.259 2125.78,826.657 2132.68,826.657L2303.69,826.657L2384.39,749.941Z"/>
            </g>
            <g transform="matrix(-0.493899,0,0,0.493899,4253.71,501.244)">
                <path d="M2401.61,768.059C2406.61,763.306 2406.81,755.388 2402.06,750.387C2397.31,745.387 2389.39,745.187 2384.39,749.941L2303.69,826.657L2132.68,826.657C2125.78,826.657 2120.18,832.259 2120.18,839.157C2120.18,846.056 2125.78,851.657 2132.68,851.657L2308.68,851.657C2311.89,851.657 2314.97,850.426 2317.3,848.217L2401.61,768.059Z"/>
            </g>
            <g transform="matrix(0.493899,0,0,0.493899,1729.55,501.244)">
                <path d="M2802.35,666.5C2809.25,666.5 2814.85,672.096 2814.85,679C2814.85,685.904 2809.25,691.5 2802.35,691.5L2423.18,691.5L2481.84,750.161C2486.72,755.039 2486.72,762.961 2481.84,767.839C2476.96,772.717 2469.04,772.717 2464.16,767.839L2387.82,691.5L2308.68,691.5C2301.78,691.5 2296.18,685.899 2296.18,679C2296.18,672.101 2301.78,666.5 2308.68,666.5L2802.35,666.5Z"/>
            </g>
            <g transform="matrix(0.493899,0,0,0.493899,1729.55,501.244)">
                <path d="M2708.83,670.179C2713.7,665.291 2721.62,665.275 2726.5,670.144C2731.39,675.012 2731.41,682.933 2726.54,687.821L2646.86,767.821C2641.99,772.709 2634.07,772.725 2629.18,767.856C2624.29,762.988 2624.28,755.067 2629.14,750.179L2708.83,670.179Z"/>
            </g>
            <g transform="matrix(0.493899,0,0,0.493899,1729.55,501.244)">
                <path d="M2402.93,1222.47C2449.7,1240.93 2500.64,1251.07 2553.94,1251.07C2609.2,1251.07 2661.94,1240.16 2710.11,1220.39L2727.99,1176.05C2730.57,1169.65 2737.86,1166.55 2744.26,1169.13C2750.65,1171.71 2753.75,1179 2751.17,1185.39L2711.51,1283.77C2708.93,1290.16 2701.64,1293.27 2695.24,1290.69C2688.85,1288.11 2685.74,1280.82 2688.33,1274.42L2697.39,1251.93C2652.45,1267.57 2604.18,1276.07 2553.94,1276.07C2505.78,1276.07 2459.42,1268.26 2416.08,1253.84L2425.45,1276.2C2428.12,1282.56 2425.12,1289.89 2418.75,1292.56C2412.39,1295.22 2405.06,1292.22 2402.39,1285.86L2361.39,1188.04C2358.73,1181.67 2361.73,1174.34 2368.09,1171.68C2374.45,1169.01 2381.78,1172.01 2384.45,1178.38L2402.93,1222.47Z"/>
            </g>
            <g transform="matrix(0.419277,0,0,0.418361,1910.15,610.289)">
                <path d="M2088,1147.54C2206.34,1147.54 2302.39,1243.63 2302.39,1361.96C2302.39,1392.64 2301.5,1432.15 2273.89,1464.24C2247.27,1495.17 2194.53,1520.42 2088,1520.42C2014.48,1520.42 1967.45,1520.14 1937.35,1513.23C1912.94,1507.63 1898.1,1497.65 1888.56,1482.19C1882.53,1472.4 1878.67,1460.09 1876.5,1444.42C1873.67,1424.02 1873.61,1397.21 1873.61,1361.96C1873.61,1243.63 1969.66,1147.54 2088,1147.54ZM2088,1177.05C1985.94,1177.05 1903.06,1259.9 1903.06,1361.96C1903.06,1390.09 1903.03,1412.61 1904.59,1430.64C1905.94,1446.16 1908.22,1457.92 1913.62,1466.67C1921.27,1479.08 1935.3,1483.94 1958.73,1487.07C1987.65,1490.94 2028.97,1490.91 2088,1490.91C2181.22,1490.91 2228.3,1472.03 2251.59,1444.97C2273.87,1419.07 2272.94,1386.73 2272.94,1361.96C2272.94,1259.9 2190.06,1177.05 2088,1177.05Z"/>
            </g>
            <g transform="matrix(-0.419277,0,0,0.418361,4073.45,610.289)">
                <path d="M2088,1147.54C1969.66,1147.54 1873.61,1243.63 1873.61,1361.96C1873.61,1397.21 1873.67,1424.02 1876.5,1444.42C1878.67,1460.09 1882.53,1472.4 1888.56,1482.19C1898.1,1497.65 1912.94,1507.63 1937.35,1513.23C1967.45,1520.14 2014.48,1520.42 2088,1520.42C2194.53,1520.42 2247.27,1495.17 2273.89,1464.24C2301.5,1432.15 2302.39,1392.64 2302.39,1361.96C2302.39,1243.63 2206.34,1147.54 2088,1147.54ZM2088,1177.05C2190.06,1177.05 2272.94,1259.9 2272.94,1361.96C2272.94,1386.73 2273.87,1419.07 2251.59,1444.97C2228.3,1472.03 2181.22,1490.91 2088,1490.91C2028.97,1490.91 1987.65,1490.94 1958.73,1487.07C1935.3,1483.94 1921.27,1479.08 1913.62,1466.67C1908.22,1457.92 1905.94,1446.16 1904.59,1430.64C1903.03,1412.61 1903.06,1390.09 1903.06,1361.96C1903.06,1259.9 1985.94,1177.05 2088,1177.05Z"/>
            </g>
        </g>
    </g>
</svg>
